<svg xmlns="http://www.w3.org/2000/svg" width="314" height="314" viewBox="0 0 314 314">
  <g id="Group_308" data-name="Group 308" transform="translate(10814 13138)">
    <circle id="Ellipse_298" data-name="Ellipse 298" cx="157" cy="157" r="157" transform="translate(-10814 -13138)" fill="#2684fb"/>
    <path id="Sun" d="M214.419,132.5H198.041a8.191,8.191,0,1,1,0-16.382h16.378a8.191,8.191,0,1,1,0,16.382ZM182.241,77.967a8.192,8.192,0,0,1-11.585-11.585L182.241,54.8a8.192,8.192,0,1,1,11.585,11.585Zm-57.929,95.489a49.152,49.152,0,1,1,49.15-49.15A49.156,49.156,0,0,1,124.312,173.456Zm0-81.917a32.768,32.768,0,1,0,32.764,32.768A32.77,32.77,0,0,0,124.312,91.538Zm0-32.768a8.193,8.193,0,0,1-8.193-8.193V34.2a8.193,8.193,0,0,1,16.386,0V50.578A8.2,8.2,0,0,1,124.312,58.771Zm-57.929,19.2L54.8,66.382A8.192,8.192,0,0,1,66.383,54.8L77.967,66.382A8.192,8.192,0,0,1,66.383,77.967Zm-7.611,46.339a8.192,8.192,0,0,1-8.193,8.189H34.192a8.191,8.191,0,0,1,0-16.382H50.578A8.193,8.193,0,0,1,58.771,124.306Zm7.611,46.339A8.192,8.192,0,1,1,77.967,182.23L66.383,193.815A8.192,8.192,0,0,1,54.8,182.23Zm57.929,19.2a8.192,8.192,0,0,1,8.193,8.189v16.386a8.193,8.193,0,0,1-16.386,0V198.03A8.19,8.19,0,0,1,124.312,189.842Zm57.929-19.2,11.585,11.585a8.192,8.192,0,0,1-11.585,11.585L170.656,182.23a8.192,8.192,0,1,1,11.585-11.585Z" transform="translate(-10781.003 -13105.003)" fill="#fff" fill-rule="evenodd"/>
  </g>
</svg>
