<svg xmlns="http://www.w3.org/2000/svg" width="314" height="314" viewBox="0 0 314 314">
  <g id="Group_312" data-name="Group 312" transform="translate(9238 13138)">
    <circle id="Ellipse_302" data-name="Ellipse 302" cx="157" cy="157" r="157" transform="translate(-9238 -13138)" fill="#2684fb"/>
    <path id="Cloud-Rain" d="M175.406,161.855V143.908a32.731,32.731,0,1,0-34.136-55.827,49.1,49.1,0,1,0-80.55,47.654v20.138a65.505,65.505,0,1,1,89.972-88.627,49.06,49.06,0,0,1,24.714,94.608Zm-90.111-46.29a8.193,8.193,0,0,1,8.189,8.193v65.535a8.191,8.191,0,1,1-16.382,0V123.757A8.2,8.2,0,0,1,85.294,115.564Zm32.768,16.386a8.193,8.193,0,0,1,8.193,8.193v65.535a8.193,8.193,0,0,1-16.386,0V140.143A8.191,8.191,0,0,1,118.062,131.95Zm32.768-16.386a8.192,8.192,0,0,1,8.189,8.193v65.535a8.191,8.191,0,1,1-16.382,0V123.757A8.2,8.2,0,0,1,150.831,115.564Z" transform="translate(-9198.947 -13104.643)" fill="#fff" fill-rule="evenodd"/>
  </g>
</svg>
