<svg xmlns="http://www.w3.org/2000/svg" width="314" height="314" viewBox="0 0 314 314">
  <g id="Group_318" data-name="Group 318" transform="translate(10404 12611)">
    <circle id="Ellipse_314" data-name="Ellipse 314" cx="157" cy="157" r="157" transform="translate(-10404 -12611)" fill="#091327"/>
    <path id="Cloud-Sun" d="M240.939,124.137H224.553a8.189,8.189,0,1,1,0-16.378h16.386a8.189,8.189,0,1,1,0,16.378ZM208.752,69.6a8.19,8.19,0,1,1-11.585-11.581l11.585-11.585a8.192,8.192,0,0,1,11.585,11.585ZM196.68,133.538h0a49.131,49.131,0,0,1-37.659,80.713H93.484A65.535,65.535,0,1,1,112.013,85.86a49.093,49.093,0,0,1,84.667,47.679ZM44.33,148.716a49.146,49.146,0,0,0,49.15,49.15h65.536a32.768,32.768,0,1,0-17.75-60.247,49.1,49.1,0,0,0-96.936,11.1ZM150.823,83.18A32.658,32.658,0,0,0,127.629,92.8a66.007,66.007,0,0,1,23.059,23.981,47,47,0,0,1,32.293,5.416h0A32.708,32.708,0,0,0,150.823,83.18Zm0-32.772a8.189,8.189,0,0,1-8.189-8.189V25.838a8.191,8.191,0,1,1,16.382,0V42.22A8.185,8.185,0,0,1,150.823,50.409ZM92.9,69.6,81.318,58.024A8.19,8.19,0,0,1,92.9,46.439l11.585,11.585A8.19,8.19,0,1,1,92.9,69.6Z" transform="translate(-10385.948 -12569.645)" fill="#fff" fill-rule="evenodd"/>
  </g>
</svg>
