<svg xmlns="http://www.w3.org/2000/svg" width="314" height="314" viewBox="0 0 314 314">
  <g id="Group_320" data-name="Group 320" transform="translate(9616 12611)">
    <circle id="Ellipse_312" data-name="Ellipse 312" cx="157" cy="157" r="157" transform="translate(-9616 -12611)" fill="#091327"/>
    <path id="Cloud-Rain-Alt" d="M159.079,164.715h-4.1a36.889,36.889,0,0,0-3.863-16.386h7.96a32.766,32.766,0,1,0-17.754-60.247,49.1,49.1,0,1,0-55.873,59.526,36.856,36.856,0,0,0-4.146,15.923,65.518,65.518,0,1,1,69.44-96.28,49.092,49.092,0,1,1,8.332,97.463Zm-40.957-28.966L132.6,150.23a20.479,20.479,0,1,1-28.962,0Z" transform="translate(-9577.002 -12563.644)" fill="#fff" fill-rule="evenodd"/>
  </g>
</svg>
