<svg xmlns="http://www.w3.org/2000/svg" width="314" height="314" viewBox="0 0 314 314">
  <g id="Group_322" data-name="Group 322" transform="translate(8880 12611)">
    <circle id="Ellipse_309" data-name="Ellipse 309" cx="157" cy="157" r="157" transform="translate(-8880 -12611)" fill="#091327"/>
    <path id="Cloud-Drizzle-Sun" d="M240.935,124.137H224.553a8.191,8.191,0,1,1,0-16.382h16.382a8.191,8.191,0,1,1,0,16.382ZM208.752,69.6a8.19,8.19,0,1,1-11.585-11.581l11.585-11.585a8.192,8.192,0,0,1,11.585,11.585ZM196.68,133.538h0A49.089,49.089,0,0,1,175.4,211.4V193.449a32.732,32.732,0,1,0-34.136-55.831,49.1,49.1,0,1,0-80.55,47.663v20.13a65.5,65.5,0,0,1,51.3-119.552,49.094,49.094,0,0,1,84.667,47.679ZM150.823,83.18a32.655,32.655,0,0,0-23.2,9.627,65.974,65.974,0,0,1,23.063,23.977,47,47,0,0,1,32.293,5.416h0A32.728,32.728,0,0,0,150.823,83.18Zm0-32.772a8.193,8.193,0,0,1-8.193-8.189V25.838a8.193,8.193,0,0,1,16.386,0V42.22A8.187,8.187,0,0,1,150.823,50.409ZM92.9,69.6,81.314,58.024A8.192,8.192,0,0,1,92.9,46.439l11.585,11.585A8.19,8.19,0,1,1,92.9,69.6Zm-7.611,95.5a8.193,8.193,0,0,1,8.193,8.193v16.378a8.193,8.193,0,0,1-16.386,0V173.295A8.191,8.191,0,0,1,85.287,165.1Zm0,49.15a8.193,8.193,0,0,1,8.193,8.193v16.378a8.193,8.193,0,0,1-16.386,0V222.444A8.191,8.191,0,0,1,85.287,214.251Zm32.768-32.772a8.2,8.2,0,0,1,8.193,8.193v16.386a8.193,8.193,0,0,1-16.386,0V189.672A8.2,8.2,0,0,1,118.055,181.48Zm0,49.158a8.192,8.192,0,0,1,8.193,8.185v16.386a8.193,8.193,0,0,1-16.386,0V238.822A8.189,8.189,0,0,1,118.055,230.637ZM150.823,165.1a8.193,8.193,0,0,1,8.193,8.193v16.378a8.193,8.193,0,0,1-16.386,0V173.295A8.191,8.191,0,0,1,150.823,165.1Zm0,49.15a8.193,8.193,0,0,1,8.193,8.193v16.378a8.193,8.193,0,0,1-16.386,0V222.444A8.191,8.191,0,0,1,150.823,214.251Z" transform="translate(-8861.948 -12594.645)" fill="#fff" fill-rule="evenodd"/>
  </g>
</svg>
