<svg xmlns="http://www.w3.org/2000/svg" width="314" height="314" viewBox="0 0 314 314">
  <g id="Group_324" data-name="Group 324" transform="translate(8208 12611)">
    <circle id="Ellipse_307" data-name="Ellipse 307" cx="157" cy="157" r="157" transform="translate(-8208 -12611)" fill="#091327"/>
    <path id="Cloud-Snow-Alt" d="M167.265,163.988V147.266a32.742,32.742,0,1,0-25.943-59.178A49.1,49.1,0,1,0,68.96,141.7v18.209a65.524,65.524,0,1,1,81.787-92.662,49.069,49.069,0,1,1,16.517,96.738ZM89.734,140.146a8.2,8.2,0,0,1,11.192-3l9,5.19V131.953a8.193,8.193,0,0,1,16.386,0v10.385l8.992-5.194a8.193,8.193,0,0,1,8.193,14.19l-9,5.194,9,5.194A8.189,8.189,0,1,1,135.3,175.9l-8.992-5.186V181.1a8.193,8.193,0,0,1-16.386,0V170.718l-8.992,5.194a8.189,8.189,0,1,1-8.193-14.182l8.992-5.2-8.992-5.194A8.2,8.2,0,0,1,89.734,140.146Zm28.381,24.579a8.193,8.193,0,1,0-8.193-8.193A8.2,8.2,0,0,0,118.114,164.725Z" transform="translate(-8169.003 -12565.642)" fill="#fff" fill-rule="evenodd"/>
  </g>
</svg>
