<svg xmlns="http://www.w3.org/2000/svg" width="314" height="314" viewBox="0 0 314 314">
  <g id="Group_325" data-name="Group 325" transform="translate(7850 12611)">
    <circle id="Ellipse_308" data-name="Ellipse 308" cx="157" cy="157" r="157" transform="translate(-7850 -12611)" fill="#091327"/>
    <path id="Cloud-Fog-Alt" d="M32.812,123.754a63.745,63.745,0,0,1-2.655-8.193H208.234a48.631,48.631,0,0,1-.741,8.193ZM61.84,41.833a65.36,65.36,0,0,1,63.353,0ZM28.572,90.986A64.27,64.27,0,0,1,30.158,82.8H195.641a48.961,48.961,0,0,1,5.96,8.189ZM32.812,74.6a65.494,65.494,0,0,1,4.031-8.193h113.4c.164.279.344.553.5.84A47.234,47.234,0,0,1,186.223,74.6Zm9.615-16.386a65.792,65.792,0,0,1,7.865-8.193h86.527a66.119,66.119,0,0,1,7.8,8.193Zm165.061,49.15H28.572A65.8,65.8,0,0,1,28,99.179H205.375A48.714,48.714,0,0,1,207.488,107.368Zm-2.114,24.579a48.891,48.891,0,0,1-3.773,8.193H42.427a65.468,65.468,0,0,1-5.584-8.193ZM50.292,148.333H195.637a49.226,49.226,0,0,1-9.418,8.189H61.84A65.936,65.936,0,0,1,50.292,148.333Z" transform="translate(-7811.003 -12548.644)" fill="#fff" fill-rule="evenodd"/>
  </g>
</svg>
